<svg width="25" height="25" viewBox="0 0 25 25" fill="none" xmlns="http://www.w3.org/2000/svg">
<g clip-path="url(#clip0_4891_63014)">
<path d="M17.395 0.071825C17.344 0.014825 15.5065 0.094325 13.9075 1.82982C12.3085 3.56382 12.5545 5.55282 12.5905 5.60383C12.6265 5.65483 14.8705 5.73432 16.303 3.71682C17.7355 1.69932 17.446 0.130325 17.395 0.071825ZM22.366 17.6713C22.294 17.5273 18.8785 15.8203 19.1965 12.5383C19.5145 9.25482 21.709 8.35483 21.7435 8.25733C21.778 8.15983 20.848 7.07233 19.8625 6.52183C19.1389 6.1337 18.3381 5.91134 17.518 5.87082C17.356 5.86632 16.7935 5.72832 15.637 6.04482C14.875 6.25332 13.1575 6.92833 12.685 6.95533C12.211 6.98233 10.801 6.17232 9.28446 5.95782C8.31396 5.77032 7.28496 6.15433 6.54846 6.44983C5.81346 6.74383 4.41546 7.58083 3.43746 9.80533C2.45946 12.0283 2.97096 15.5503 3.33696 16.6453C3.70296 17.7388 4.27446 19.5313 5.24646 20.8393C6.11046 22.3153 7.25646 23.3398 7.73496 23.6878C8.21346 24.0358 9.56346 24.2668 10.4995 23.7883C11.2525 23.3263 12.6115 23.0608 13.1485 23.0803C13.684 23.0998 14.74 23.3113 15.8215 23.8888C16.678 24.1843 17.488 24.0613 18.2995 23.7313C19.111 23.3998 20.2855 22.1428 21.6565 19.5943C22.177 18.4093 22.414 17.7688 22.366 17.6713Z" fill="black"/>
<path d="M17.395 0.071825C17.344 0.014825 15.5065 0.094325 13.9075 1.82982C12.3085 3.56382 12.5545 5.55282 12.5905 5.60383C12.6265 5.65483 14.8705 5.73432 16.303 3.71682C17.7355 1.69932 17.446 0.130325 17.395 0.071825ZM22.366 17.6713C22.294 17.5273 18.8785 15.8203 19.1965 12.5383C19.5145 9.25482 21.709 8.35483 21.7435 8.25733C21.778 8.15983 20.848 7.07233 19.8625 6.52183C19.1389 6.1337 18.3381 5.91134 17.518 5.87082C17.356 5.86632 16.7935 5.72832 15.637 6.04482C14.875 6.25332 13.1575 6.92833 12.685 6.95533C12.211 6.98233 10.801 6.17232 9.28446 5.95782C8.31396 5.77032 7.28496 6.15433 6.54846 6.44983C5.81346 6.74383 4.41546 7.58083 3.43746 9.80533C2.45946 12.0283 2.97096 15.5503 3.33696 16.6453C3.70296 17.7388 4.27446 19.5313 5.24646 20.8393C6.11046 22.3153 7.25646 23.3398 7.73496 23.6878C8.21346 24.0358 9.56346 24.2668 10.4995 23.7883C11.2525 23.3263 12.6115 23.0608 13.1485 23.0803C13.684 23.0998 14.74 23.3113 15.8215 23.8888C16.678 24.1843 17.488 24.0613 18.2995 23.7313C19.111 23.3998 20.2855 22.1428 21.6565 19.5943C22.177 18.4093 22.414 17.7688 22.366 17.6713Z" fill="black"/>
</g>
<defs>
<clipPath id="clip0_4891_63014">
<rect width="24" height="24" fill="white" transform="translate(0.62207 0.0598145)"/>
</clipPath>
</defs>
</svg>
