<svg width="18" height="18" viewBox="0 0 18 18" fill="none" xmlns="http://www.w3.org/2000/svg">
    <mask id="mask0_5045_14254" style="mask-type:alpha" maskUnits="userSpaceOnUse" x="0" y="0" width="18" height="18">
        <rect x="0.67334" y="0.673309" width="16.6534" height="16.6534" fill="#831349" />
    </mask>
    <g mask="url(#mask0_5045_14254)">
        <path
            d="M4.57633 10.7346V11.602C4.57633 11.7524 4.52428 11.8768 4.4202 11.9753C4.31612 12.0734 4.19469 12.1224 4.05591 12.1224H3.62222C3.47188 12.1224 3.34768 12.0734 3.24961 11.9753C3.15107 11.8768 3.10181 11.7524 3.10181 11.602V6.2764L4.52428 2.23448C4.57054 2.07258 4.66306 1.94536 4.80184 1.85284C4.94062 1.76032 5.09674 1.71407 5.27022 1.71407H12.7642C12.9261 1.71407 13.0735 1.7631 13.2062 1.86117C13.3395 1.9597 13.4292 2.08414 13.4755 2.23448L14.898 6.2764V11.602C14.898 11.7524 14.8489 11.8768 14.7508 11.9753C14.6523 12.0734 14.5279 12.1224 14.3775 12.1224H13.9439C13.8051 12.1224 13.6836 12.0734 13.5796 11.9753C13.4755 11.8768 13.4234 11.7524 13.4234 11.602V10.7346H4.57633ZM4.55898 5.23556H13.4408L12.5561 2.7549H5.44369L4.55898 5.23556ZM5.86002 8.89584C6.10289 8.89584 6.31383 8.8061 6.49285 8.62661C6.67234 8.44758 6.76208 8.23086 6.76208 7.97643C6.76208 7.73357 6.67234 7.52263 6.49285 7.3436C6.31383 7.16412 6.0971 7.07437 5.84268 7.07437C5.59981 7.07437 5.38887 7.16412 5.20985 7.3436C5.03036 7.52263 4.94062 7.73935 4.94062 7.99378C4.94062 8.23664 5.03036 8.44758 5.20985 8.62661C5.38887 8.8061 5.6056 8.89584 5.86002 8.89584ZM12.1571 8.89584C12.3999 8.89584 12.6109 8.8061 12.7899 8.62661C12.9694 8.44758 13.0591 8.23086 13.0591 7.97643C13.0591 7.73357 12.9694 7.52263 12.7899 7.3436C12.6109 7.16412 12.3942 7.07437 12.1397 7.07437C11.8969 7.07437 11.6859 7.16412 11.5069 7.3436C11.3274 7.52263 11.2377 7.73935 11.2377 7.99378C11.2377 8.23664 11.3274 8.44758 11.5069 8.62661C11.6859 8.8061 11.9027 8.89584 12.1571 8.89584ZM9.64173 16.5113L5.79063 14.5857H8.35803V13.2847L12.2091 15.2102H9.64173V16.5113ZM4.14264 9.69381H13.8571V6.2764H4.14264V9.69381Z"
            fill="#831349" />
    </g>
</svg>