<svg width="221" height="40" viewBox="0 0 221 40" fill="none" xmlns="http://www.w3.org/2000/svg">
<path d="M8.03026 31.4702V10.1057H0.720433V6.39084H19.9622V10.1057H12.6866V31.4702H8.03026ZM21.7775 31.4702V5.7232L26.2627 5.43218V10.8589C26.2627 11.1214 26.2456 11.8518 26.2113 13.0501C26.1771 14.2371 26.16 14.8419 26.16 14.8648C27.655 13.0844 29.6637 12.1942 32.1859 12.1942C34.2858 12.1942 35.9121 12.7991 37.0648 14.0088C38.2289 15.2071 38.8109 17.056 38.8109 19.5554V31.4702H34.3258V20.0518C34.3258 18.5111 34.0804 17.3813 33.5896 16.6623C33.0989 15.9433 32.2658 15.5838 31.0903 15.5838C30.0859 15.5838 29.1958 15.8405 28.4197 16.3541C27.6436 16.8563 27.0616 17.5068 26.6736 18.3057C26.3997 19.3557 26.2627 20.7252 26.2627 22.4143V31.4702H21.7775ZM51.24 31.8297C48.2157 31.8297 45.859 30.9624 44.1699 29.2276C42.4922 27.4815 41.6534 25.0734 41.6534 22.0034C41.6534 19.0133 42.4466 16.6337 44.0329 14.8648C45.6193 13.0958 47.782 12.2056 50.521 12.1942C53.1117 12.1942 55.1204 13.0045 56.5469 14.6251C57.9849 16.2457 58.7039 18.397 58.7039 21.079C58.7039 21.273 58.6982 21.5868 58.6868 22.0205C58.6868 22.4542 58.6868 22.7738 58.6868 22.9792H46.1728C46.2185 24.7367 46.6978 26.1005 47.6108 27.0706C48.5352 28.0293 49.802 28.5086 51.4112 28.5086C53.4655 28.5086 55.4399 27.9722 57.3344 26.8994L57.9678 30.0836C56.0847 31.2477 53.8421 31.8297 51.24 31.8297ZM46.2584 20.1545H54.4755C54.4755 18.6252 54.1274 17.4497 53.4313 16.628C52.7351 15.8063 51.7707 15.3955 50.5382 15.3955C49.3855 15.3955 48.4097 15.7949 47.6108 16.5938C46.8233 17.3927 46.3725 18.5796 46.2584 20.1545ZM73.0332 31.8297C69.3698 31.8297 66.4652 30.677 64.3197 28.3717C62.1741 26.0663 61.1013 22.8822 61.1013 18.8193C61.1013 14.9618 62.2197 11.8689 64.4566 9.54075C66.7049 7.20115 69.6437 6.03135 73.2729 6.03135C76.206 6.03135 78.6882 6.7104 80.7197 8.06851L79.2646 11.5779C77.313 10.3796 75.35 9.78041 73.3756 9.78041C71.0703 9.78041 69.2442 10.6135 67.8975 12.2798C66.5623 13.9346 65.8946 16.1601 65.8946 18.9562C65.8946 21.855 66.5394 24.0976 67.8291 25.684C69.1301 27.2703 70.979 28.0635 73.3756 28.0635C75.4756 28.0635 77.5584 27.5385 79.6241 26.4886L80.2404 30.1178C78.323 31.2591 75.9207 31.8297 73.0332 31.8297ZM83.254 31.4702V5.7232L87.7392 5.43218V10.8589C87.7392 11.1214 87.7221 11.8518 87.6878 13.0501C87.6536 14.2371 87.6365 14.8419 87.6365 14.8648C89.1315 13.0844 91.1402 12.1942 93.6624 12.1942C95.7623 12.1942 97.3886 12.7991 98.5413 14.0088C99.7054 15.2071 100.287 17.056 100.287 19.5554V31.4702H95.8022V20.0518C95.8022 18.5111 95.5569 17.3813 95.0661 16.6623C94.5754 15.9433 93.7422 15.5838 92.5667 15.5838C91.5624 15.5838 90.6722 15.8405 89.8962 16.3541C89.1201 16.8563 88.5381 17.5068 88.15 18.3057C87.8761 19.3557 87.7392 20.7252 87.7392 22.4143V31.4702H83.254ZM104.123 31.4702V12.6564H108.608V31.4702H104.123ZM104.123 9.91736V6.0827H108.625V9.91736H104.123ZM112.597 39.2936V12.6564H116.449L116.928 15.2927C117.545 14.2998 118.361 13.5352 119.376 12.9988C120.404 12.451 121.545 12.1771 122.8 12.1771C124.341 12.1771 125.693 12.6051 126.858 13.461C128.033 14.317 128.923 15.4868 129.528 16.9704C130.133 18.4426 130.435 20.1089 130.435 21.9692C130.435 24.8794 129.728 27.2532 128.313 29.0907C126.909 30.9167 125.003 31.8297 122.595 31.8297C121.408 31.8297 120.329 31.5958 119.359 31.1278C118.401 30.6485 117.596 30.0037 116.946 29.1934C117.037 30.8368 117.083 31.7612 117.083 31.9667V39.0711L112.597 39.2936ZM121.636 28.4059C122.971 28.4059 124.021 27.8467 124.786 26.7282C125.562 25.6098 125.95 24.012 125.95 21.9349C125.95 19.8236 125.562 18.2372 124.786 17.1758C124.01 16.1145 122.932 15.5838 121.551 15.5838C118.583 15.5838 117.083 17.6038 117.048 21.6439C117.048 23.9721 117.431 25.684 118.195 26.7796C118.971 27.8638 120.118 28.4059 121.636 28.4059ZM133.706 31.4702V6.32237H143.001C144.268 6.32237 145.364 6.37943 146.288 6.49356C147.224 6.60769 148.109 6.81882 148.942 7.12696C149.786 7.42369 150.465 7.82884 150.979 8.34241C151.504 8.85598 151.915 9.52933 152.211 10.3625C152.52 11.1842 152.674 12.16 152.674 13.2898C152.674 16.6223 151.161 18.8135 148.137 19.8635C148.753 20.5597 149.518 21.8493 150.431 23.7324L154.163 31.4702H149.096L146.168 24.9136C145.061 22.5626 144.377 21.1703 144.114 20.7366C143.92 20.7252 143.275 20.7195 142.18 20.7195L138.294 20.6852V31.4702H133.706ZM143.412 17.3641C145.193 17.3641 146.471 17.0503 147.247 16.4226C148.023 15.7835 148.411 14.762 148.411 13.3583C148.411 12.1257 148.017 11.2184 147.23 10.6364C146.442 10.0543 145.238 9.76329 143.618 9.76329H138.294V17.347C138.465 17.347 139.315 17.3527 140.844 17.3641C142.374 17.3641 143.23 17.3641 143.412 17.3641ZM156.663 31.4702V12.6564H161.148V31.4702H156.663ZM156.663 9.91736V6.0827H161.165V9.91736H156.663ZM172.139 31.8297C169.686 31.8297 167.757 30.9281 166.353 29.1249C164.949 27.3217 164.248 24.9136 164.248 21.9007C164.248 18.979 164.944 16.6337 166.336 14.8648C167.74 13.0844 169.669 12.1942 172.122 12.1942C174.793 12.1942 176.682 13.1414 177.789 15.036C177.675 13.9175 177.617 12.839 177.617 11.8005V5.7232L182.103 5.43218V31.4702H178.217L177.72 28.9024C177.526 29.2105 177.344 29.4787 177.172 29.707C177.013 29.9238 176.773 30.1806 176.453 30.4773C176.134 30.7626 175.786 30.9966 175.409 31.1792C175.044 31.3504 174.576 31.4987 174.005 31.6243C173.446 31.7612 172.824 31.8297 172.139 31.8297ZM173.201 28.423C176.214 28.423 177.743 26.3745 177.789 22.2773C177.789 19.9605 177.401 18.2714 176.625 17.2101C175.849 16.1487 174.69 15.618 173.149 15.618C171.803 15.618 170.724 16.1601 169.914 17.2443C169.115 18.3171 168.716 19.9035 168.716 22.0034C168.716 24.0919 169.115 25.684 169.914 26.7796C170.724 27.8752 171.82 28.423 173.201 28.423ZM194.669 31.8297C191.644 31.8297 189.288 30.9624 187.599 29.2276C185.921 27.4815 185.082 25.0734 185.082 22.0034C185.082 19.0133 185.875 16.6337 187.462 14.8648C189.048 13.0958 191.211 12.2056 193.95 12.1942C196.54 12.1942 198.549 13.0045 199.976 14.6251C201.414 16.2457 202.133 18.397 202.133 21.079C202.133 21.273 202.127 21.5868 202.115 22.0205C202.115 22.4542 202.115 22.7738 202.115 22.9792H189.601C189.647 24.7367 190.126 26.1005 191.039 27.0706C191.964 28.0293 193.231 28.5086 194.84 28.5086C196.894 28.5086 198.869 27.9722 200.763 26.8994L201.396 30.0836C199.513 31.2477 197.271 31.8297 194.669 31.8297ZM189.687 20.1545H197.904C197.904 18.6252 197.556 17.4497 196.86 16.628C196.164 15.8063 195.199 15.3955 193.967 15.3955C192.814 15.3955 191.838 15.7949 191.039 16.5938C190.252 17.3927 189.801 18.5796 189.687 20.1545Z" fill="#0A0A0A"/>
<mask id="mask0_4891_63096" style="mask-type:alpha" maskUnits="userSpaceOnUse" x="204" y="15" width="17" height="18">
<rect x="204.347" y="15.3706" width="16.6534" height="16.6534" fill="#831349"/>
</mask>
<g mask="url(#mask0_4891_63096)">
<path d="M208.25 25.432V26.2993C208.25 26.4497 208.198 26.5741 208.094 26.6726C207.99 26.7707 207.868 26.8197 207.729 26.8197H207.296C207.145 26.8197 207.021 26.7707 206.923 26.6726C206.825 26.5741 206.775 26.4497 206.775 26.2993V20.9737L208.198 16.9318C208.244 16.7699 208.337 16.6427 208.475 16.5502C208.614 16.4576 208.77 16.4114 208.944 16.4114H216.438C216.6 16.4114 216.747 16.4604 216.88 16.5585C217.013 16.657 217.103 16.7815 217.149 16.9318L218.572 20.9737V26.2993C218.572 26.4497 218.523 26.5741 218.424 26.6726C218.326 26.7707 218.201 26.8197 218.051 26.8197H217.617C217.479 26.8197 217.357 26.7707 217.253 26.6726C217.149 26.5741 217.097 26.4497 217.097 26.2993V25.432H208.25ZM208.233 19.9329H217.114L216.23 17.4522H209.117L208.233 19.9329ZM209.534 23.5932C209.776 23.5932 209.987 23.5034 210.166 23.3239C210.346 23.1449 210.436 22.9282 210.436 22.6737C210.436 22.4309 210.346 22.2199 210.166 22.0409C209.987 21.8614 209.771 21.7717 209.516 21.7717C209.273 21.7717 209.062 21.8614 208.883 22.0409C208.704 22.2199 208.614 22.4367 208.614 22.6911C208.614 22.934 208.704 23.1449 208.883 23.3239C209.062 23.5034 209.279 23.5932 209.534 23.5932ZM215.831 23.5932C216.074 23.5932 216.284 23.5034 216.463 23.3239C216.643 23.1449 216.733 22.9282 216.733 22.6737C216.733 22.4309 216.643 22.2199 216.463 22.0409C216.284 21.8614 216.068 21.7717 215.813 21.7717C215.57 21.7717 215.36 21.8614 215.18 22.0409C215.001 22.2199 214.911 22.4367 214.911 22.6911C214.911 22.934 215.001 23.1449 215.18 23.3239C215.36 23.5034 215.576 23.5932 215.831 23.5932ZM213.315 31.2086L209.464 29.2831H212.032V27.982L215.883 29.9076H213.315V31.2086ZM207.816 24.3911H217.531V20.9737H207.816V24.3911Z" fill="#831349"/>
</g>
</svg>
